<?xml version="1.0" standalone="no"?><!-- Generator: Gravit.io --><svg xmlns="http://www.w3.org/2000/svg" xmlns:xlink="http://www.w3.org/1999/xlink" style="isolation:isolate" viewBox="400 329 30 30" width="30" height="30"><defs><clipPath id="_clipPath_oUhKU1DNNoywdMBtq70WhJaf4ljYUsj3"><rect x="400" y="329" width="30" height="30"/></clipPath></defs><g clip-path="url(#_clipPath_oUhKU1DNNoywdMBtq70WhJaf4ljYUsj3)"><circle vector-effect="non-scaling-stroke" cx="415" cy="344.0000000000001" r="15" fill="rgb(152,0,0)"/><path d=" M 409.128 345.013 L 408.123 345.013 L 408.123 348.988 L 406.023 348.988 L 406.023 339.283 L 409.758 339.283 L 409.758 339.283 Q 411.618 339.283 411.618 341.263 L 411.618 341.263 L 411.618 342.388 L 411.618 342.388 Q 411.618 343.588 410.763 343.918 L 410.763 343.918 L 410.763 343.918 Q 411.513 344.188 411.513 345.148 L 411.513 345.148 L 411.513 348.988 L 409.413 348.988 L 409.413 345.313 L 409.413 345.313 Q 409.413 345.013 409.128 345.013 L 409.128 345.013 L 409.128 345.013 Z  M 409.233 340.708 L 408.123 340.708 L 408.123 343.543 L 409.233 343.543 L 409.233 343.543 Q 409.353 343.543 409.435 343.453 L 409.435 343.453 L 409.435 343.453 Q 409.518 343.363 409.518 343.243 L 409.518 343.243 L 409.518 341.008 L 409.518 341.008 Q 409.518 340.888 409.435 340.798 L 409.435 340.798 L 409.435 340.798 Q 409.353 340.708 409.233 340.708 L 409.233 340.708 L 409.233 340.708 Z  M 415.068 344.923 L 415.068 347.248 L 417.393 347.248 L 417.393 348.988 L 412.968 348.988 L 412.968 339.283 L 417.393 339.283 L 417.393 340.993 L 415.068 340.993 L 415.068 343.273 L 417.243 343.273 L 417.243 344.923 L 415.068 344.923 L 415.068 344.923 Z  M 422.223 347.398 L 422.223 347.398 L 422.223 345.898 L 424.218 345.898 L 424.218 347.158 L 424.218 347.158 Q 424.218 349.138 422.358 349.138 L 422.358 349.138 L 420.468 349.138 L 420.468 349.138 Q 418.608 349.138 418.608 347.158 L 418.608 347.158 L 418.608 341.113 L 418.608 341.113 Q 418.608 339.133 420.468 339.133 L 420.468 339.133 L 422.358 339.133 L 422.358 339.133 Q 424.218 339.133 424.218 341.113 L 424.218 341.113 L 424.218 342.028 L 422.223 342.028 L 422.223 340.858 L 422.223 340.858 Q 422.223 340.738 422.14 340.648 L 422.14 340.648 L 422.14 340.648 Q 422.058 340.558 421.938 340.558 L 421.938 340.558 L 420.993 340.558 L 420.993 340.558 Q 420.873 340.558 420.79 340.648 L 420.79 340.648 L 420.79 340.648 Q 420.708 340.738 420.708 340.858 L 420.708 340.858 L 420.708 347.398 L 420.708 347.398 Q 420.708 347.518 420.79 347.608 L 420.79 347.608 L 420.79 347.608 Q 420.873 347.698 420.993 347.698 L 420.993 347.698 L 421.938 347.698 L 421.938 347.698 Q 422.058 347.698 422.14 347.608 L 422.14 347.608 L 422.14 347.608 Q 422.223 347.518 422.223 347.398 Z " fill="rgb(255,255,255)"/></g></svg>