<?xml version='1.0' encoding='UTF-8'?>
<svg viewBox="-1.8 0 32 32" xmlns="http://www.w3.org/2000/svg">
  <g id="Layer_1" transform="translate(-1.8, 0)">
    <g id="Stop">
      <path d="M27, 6C25.9, 6 25, 6.9 25, 8L25, 14L24, 14L24, 4C24, 2.9 23.1, 2 22, 2C20.9, 2 20, 2.9 20, 4L20, 14L19, 14L19, 2C19, 0.9 18.1, 0 17, 0C15.9, 0 15, 0.9 15, 2L15, 14L14, 14L14, 4C14, 2.9 13.1, 2 12, 2C10.9, 2 10, 2.9 10, 4L10, 14L10, 18L10, 18.4L5.1, 15.3C4.3, 14.8 3.3, 14.9 2.6, 15.6C1.8, 16.4 1.8, 17.7 2.6, 18.5L11.9, 28C13.1, 29.3 14.9, 30.1 16.8, 30.1L23, 30.1C26.3, 30.1 29, 27.4 29, 24.1L29, 20.1L29, 14.1L29, 8C29, 6.9 28.1, 6 27, 6z" fill="#727272" class="Black" />
    </g>
  </g>
</svg>